<svg width="640" height="512" viewBox="0 0 640 512" fill="none" xmlns="http://www.w3.org/2000/svg">
<path d="M624 447.999H544V113.449C544 86.189 522.47 63.999 496 63.999H384V127.999H480V511.999H624C632.84 511.999 640 504.839 640 495.999V463.999C640 455.159 632.84 447.999 624 447.999ZM312.24 1.00903L120.24 50.749C105.99 54.439 96 67.699 96 82.919V447.999H16C7.16 447.999 0 455.159 0 463.999V495.999C0 504.839 7.16 511.999 16 511.999H352V33.179C352 11.599 332.44 -4.23097 312.24 1.00903V1.00903ZM264 287.999C250.75 287.999 240 273.669 240 255.999C240 238.329 250.75 223.999 264 223.999C277.25 223.999 288 238.329 288 255.999C288 273.669 277.25 287.999 264 287.999Z" fill="#8BCCCC"/>
</svg>
