<svg width="17" height="17" viewBox="0 0 17 17" fill="none" xmlns="http://www.w3.org/2000/svg">
<g clip-path="url(#clip0_109_275)">
<path d="M2.25235 4.81676C0.750524 6.31856 0.750524 8.76214 2.25232 10.2639L3.05001 9.46626C1.9881 8.40436 1.98807 6.67646 3.05004 5.6145C4.11197 4.55257 5.83985 4.55257 6.90179 5.61447L7.69947 4.81679C6.1977 3.31496 3.75412 3.31499 2.25235 4.81676Z" fill="#D03A0E"/>
<path d="M3.84133 6.39112C3.20916 7.02329 3.20913 8.05194 3.8413 8.68414L4.63901 7.88646C4.54584 7.79328 4.49453 7.6694 4.49453 7.53765C4.49453 7.40592 4.54587 7.28203 4.63904 7.18886C4.73221 7.09569 4.8561 7.04437 4.98782 7.04437C5.11958 7.04437 5.24349 7.09569 5.33664 7.18886L6.13432 6.39115C5.50215 5.75895 4.4735 5.75895 3.84133 6.39112Z" fill="#D03A0E"/>
<path d="M13.7484 4.43548L11.8552 2.54883L7.92355 6.47402L9.44776 8.04816C9.19232 8.5016 8.63808 9.37025 7.69351 10.3148C6.74883 11.2595 5.87384 11.82 5.41605 12.0795L3.87279 10.5559L0.00244141 14.4032L1.88528 16.2986C2.60503 17.0184 3.70016 17.2049 4.61038 16.7628C5.99939 16.0882 8.09564 14.8434 10.1944 12.7446C12.2933 10.6458 13.538 8.54959 14.2126 7.16058C14.3725 6.83144 14.4501 6.47822 14.4501 6.12727C14.4501 5.50755 14.2079 4.89499 13.7484 4.43548ZM13.1979 6.66767C12.5611 7.97881 11.3847 9.959 9.39679 11.9469C7.40886 13.9348 5.42866 15.1112 4.11753 15.748C3.63953 15.9802 3.06305 15.8809 2.68438 15.5022L1.59763 14.4082L3.87561 12.1439L5.19033 13.4418L5.54207 13.2852C5.59923 13.2598 6.95965 12.6441 8.49134 11.1124C10.024 9.57982 10.6268 8.23089 10.6517 8.17421L10.8042 7.82718L9.50695 6.4874L11.856 4.14213L12.9513 5.23362C13.3308 5.61365 13.43 6.18987 13.1979 6.66767Z" fill="#D03A0E"/>
</g>
<defs>
<clipPath id="clip0_109_275">
<rect width="17" height="17" fill="white"/>
</clipPath>
</defs>
</svg>
